<svg width="2788" height="1715" xmlns="http://www.w3.org/2000/svg" xmlns:xlink="http://www.w3.org/1999/xlink" overflow="hidden"><defs><filter id="fx0" x="-10%" y="-10%" width="120%" height="120%" filterUnits="userSpaceOnUse" primitiveUnits="userSpaceOnUse"><feComponentTransfer color-interpolation-filters="sRGB"><feFuncR type="discrete" tableValues="0 0"/><feFuncG type="discrete" tableValues="0 0"/><feFuncB type="discrete" tableValues="0 0"/><feFuncA type="linear" slope="0.4" intercept="0"/></feComponentTransfer><feGaussianBlur stdDeviation="1.92547 1.92547"/></filter><filter id="fx1" x="-10%" y="-10%" width="120%" height="120%" filterUnits="userSpaceOnUse" primitiveUnits="userSpaceOnUse"><feComponentTransfer color-interpolation-filters="sRGB"><feFuncR type="discrete" tableValues="0 0"/><feFuncG type="discrete" tableValues="0 0"/><feFuncB type="discrete" tableValues="0 0"/><feFuncA type="linear" slope="0.4" intercept="0"/></feComponentTransfer><feGaussianBlur stdDeviation="1.92547 1.92547"/></filter><filter id="fx2" x="-10%" y="-10%" width="120%" height="120%" filterUnits="userSpaceOnUse" primitiveUnits="userSpaceOnUse"><feComponentTransfer color-interpolation-filters="sRGB"><feFuncR type="discrete" tableValues="0 0"/><feFuncG type="discrete" tableValues="0 0"/><feFuncB type="discrete" tableValues="0 0"/><feFuncA type="linear" slope="0.4" intercept="0"/></feComponentTransfer><feGaussianBlur stdDeviation="1.92547 1.92547"/></filter><filter id="fx3" x="-10%" y="-10%" width="120%" height="120%" filterUnits="userSpaceOnUse" primitiveUnits="userSpaceOnUse"><feComponentTransfer color-interpolation-filters="sRGB"><feFuncR type="discrete" tableValues="0 0"/><feFuncG type="discrete" tableValues="0 0"/><feFuncB type="discrete" tableValues="0 0"/><feFuncA type="linear" slope="0.4" intercept="0"/></feComponentTransfer><feGaussianBlur stdDeviation="1.92547 1.92547"/></filter><filter id="fx4" x="-10%" y="-10%" width="120%" height="120%" filterUnits="userSpaceOnUse" primitiveUnits="userSpaceOnUse"><feComponentTransfer color-interpolation-filters="sRGB"><feFuncR type="discrete" tableValues="0 0"/><feFuncG type="discrete" tableValues="0 0"/><feFuncB type="discrete" tableValues="0 0"/><feFuncA type="linear" slope="0.4" intercept="0"/></feComponentTransfer><feGaussianBlur stdDeviation="1.92547 1.92547"/></filter><filter id="fx5" x="-10%" y="-10%" width="120%" height="120%" filterUnits="userSpaceOnUse" primitiveUnits="userSpaceOnUse"><feComponentTransfer color-interpolation-filters="sRGB"><feFuncR type="discrete" tableValues="0 0"/><feFuncG type="discrete" tableValues="0 0"/><feFuncB type="discrete" tableValues="0 0"/><feFuncA type="linear" slope="0.4" intercept="0"/></feComponentTransfer><feGaussianBlur stdDeviation="1.92547 1.92547"/></filter><filter id="fx6" x="-10%" y="-10%" width="120%" height="120%" filterUnits="userSpaceOnUse" primitiveUnits="userSpaceOnUse"><feComponentTransfer color-interpolation-filters="sRGB"><feFuncR type="discrete" tableValues="0 0"/><feFuncG type="discrete" tableValues="0 0"/><feFuncB type="discrete" tableValues="0 0"/><feFuncA type="linear" slope="0.4" intercept="0"/></feComponentTransfer><feGaussianBlur stdDeviation="1.92547 1.92547"/></filter><filter id="fx7" x="-10%" y="-10%" width="120%" height="120%" filterUnits="userSpaceOnUse" primitiveUnits="userSpaceOnUse"><feComponentTransfer color-interpolation-filters="sRGB"><feFuncR type="discrete" tableValues="0 0"/><feFuncG type="discrete" tableValues="0 0"/><feFuncB type="discrete" tableValues="0 0"/><feFuncA type="linear" slope="0.4" intercept="0"/></feComponentTransfer><feGaussianBlur stdDeviation="1.92547 1.92547"/></filter><filter id="fx8" x="-10%" y="-10%" width="120%" height="120%" filterUnits="userSpaceOnUse" primitiveUnits="userSpaceOnUse"><feComponentTransfer color-interpolation-filters="sRGB"><feFuncR type="discrete" tableValues="0 0"/><feFuncG type="discrete" tableValues="0 0"/><feFuncB type="discrete" tableValues="0 0"/><feFuncA type="linear" slope="0.4" intercept="0"/></feComponentTransfer><feGaussianBlur stdDeviation="1.92547 1.92547"/></filter><filter id="fx9" x="-10%" y="-10%" width="120%" height="120%" filterUnits="userSpaceOnUse" primitiveUnits="userSpaceOnUse"><feComponentTransfer color-interpolation-filters="sRGB"><feFuncR type="discrete" tableValues="0 0"/><feFuncG type="discrete" tableValues="0 0"/><feFuncB type="discrete" tableValues="0 0"/><feFuncA type="linear" slope="0.4" intercept="0"/></feComponentTransfer><feGaussianBlur stdDeviation="1.92547 1.92547"/></filter><filter id="fx10" x="-10%" y="-10%" width="120%" height="120%" filterUnits="userSpaceOnUse" primitiveUnits="userSpaceOnUse"><feComponentTransfer color-interpolation-filters="sRGB"><feFuncR type="discrete" tableValues="0 0"/><feFuncG type="discrete" tableValues="0 0"/><feFuncB type="discrete" tableValues="0 0"/><feFuncA type="linear" slope="0.4" intercept="0"/></feComponentTransfer><feGaussianBlur stdDeviation="1.92547 1.92547"/></filter><filter id="fx11" x="-10%" y="-10%" width="120%" height="120%" filterUnits="userSpaceOnUse" primitiveUnits="userSpaceOnUse"><feComponentTransfer color-interpolation-filters="sRGB"><feFuncR type="discrete" tableValues="0 0"/><feFuncG type="discrete" tableValues="0 0"/><feFuncB type="discrete" tableValues="0 0"/><feFuncA type="linear" slope="0.4" intercept="0"/></feComponentTransfer><feGaussianBlur stdDeviation="1.92547 1.92547"/></filter><clipPath id="clip12"><rect x="1162" y="627" width="2788" height="1715"/></clipPath><clipPath id="clip13"><rect x="64" y="39" width="266" height="101"/></clipPath><clipPath id="clip14"><rect x="0" y="0" width="399" height="207"/></clipPath><clipPath id="clip15"><rect x="66" y="39" width="80" height="101"/></clipPath><clipPath id="clip16"><rect x="0" y="0" width="216" height="207"/></clipPath><clipPath id="clip17"><rect x="51" y="51" width="55" height="93"/></clipPath><clipPath id="clip18"><rect x="0" y="0" width="192" height="207"/></clipPath><clipPath id="clip19"><rect x="60" y="41" width="97" height="99"/></clipPath><clipPath id="clip20"><rect x="0" y="0" width="215" height="207"/></clipPath><clipPath id="clip21"><rect x="53" y="51" width="55" height="93"/></clipPath><clipPath id="clip22"><rect x="0" y="0" width="193" height="207"/></clipPath><clipPath id="clip23"><rect x="62" y="39" width="179" height="101"/></clipPath><clipPath id="clip24"><rect x="0" y="0" width="307" height="207"/></clipPath><clipPath id="clip25"><rect x="51" y="51" width="57" height="93"/></clipPath><clipPath id="clip26"><rect x="0" y="0" width="192" height="207"/></clipPath><clipPath id="clip27"><rect x="62" y="39" width="188" height="101"/></clipPath><clipPath id="clip28"><rect x="0" y="0" width="308" height="207"/></clipPath><clipPath id="clip29"><rect x="68" y="39" width="173" height="101"/></clipPath><clipPath id="clip30"><rect x="0" y="0" width="307" height="207"/></clipPath><clipPath id="clip31"><rect x="64" y="36" width="184" height="104"/></clipPath><clipPath id="clip32"><rect x="0" y="0" width="307" height="206"/></clipPath><clipPath id="clip33"><rect x="53" y="49" width="55" height="93"/></clipPath><clipPath id="clip34"><rect x="0" y="0" width="192" height="206"/></clipPath><clipPath id="clip35"><rect x="60" y="41" width="190" height="99"/></clipPath><clipPath id="clip36"><rect x="0" y="0" width="308" height="206"/></clipPath></defs><g clip-path="url(#clip12)" transform="translate(-1162 -627)"><path d="M1172.5 737.123C1172.5 682.103 1217.1 637.5 1272.12 637.5L3839.88 637.5C3894.9 637.5 3939.5 682.103 3939.5 737.123L3939.5 2231.88C3939.5 2286.9 3894.9 2331.5 3839.88 2331.5L1272.12 2331.5C1217.1 2331.5 1172.5 2286.9 1172.5 2231.88Z" stroke="#000000" stroke-width="20.625" stroke-miterlimit="8" fill="#E7E6E6" fill-rule="evenodd"/><path d="M2121.49 935.019 2268.01 935.019 2268.01 999.683 2151.76 999.683 2151.76 1015.55 2274.07 1015.55 2274.07 1041.1 2121.49 1041.1 2121.49 975.706 2237.86 975.706 2237.86 960.57 2121.49 960.57ZM2423.38 828.577 2450.38 828.577 2450.38 874.956C2450.38 894.654 2454.19 913.383 2461.82 931.144 2469.45 948.904 2479.2 962.346 2491.07 971.468L2471.21 989.027C2455.63 972.316 2444.45 954.797 2437.66 936.472 2432.58 959.157 2422.16 980.913 2406.42 1001.74L2383.9 986.847C2388.66 982.407 2393.63 975.706 2398.79 966.745 2388.22 956.412 2380.02 944.908 2374.21 932.234 2369.21 950.559 2359.8 967.835 2346 984.062L2323.11 969.409C2333.52 959.641 2342.16 945.756 2349.02 927.753 2355.89 909.751 2359.32 891.748 2359.32 873.745L2359.32 828.82 2386.56 828.82 2386.56 871.929C2386.56 901.799 2394.6 924.807 2410.66 940.952 2419.14 918.106 2423.38 896.269 2423.38 875.441ZM2098 819.859 2128.15 819.859 2128.15 887.55C2174.33 887.55 2206.17 885.653 2223.69 881.859L2227.69 906.925C2214.45 909.751 2200.76 911.486 2186.64 912.132 2172.51 912.778 2142.96 913.101 2098 913.101ZM2493.49 812.714 2523.76 812.714 2523.76 1046.3 2493.49 1046.3ZM2237.86 812.714 2268.01 812.714 2268.01 859.577 2303.49 859.577 2303.49 885.128 2268.01 885.128 2268.01 925.089 2237.86 925.089Z" stroke="#FFFFFF" stroke-width="10" stroke-linejoin="round" stroke-miterlimit="10" fill-rule="evenodd"/><text fill="#000000" fill-opacity="0" font-family="Arial,Arial_MSFontService,sans-serif" font-size="233.59" x="2098" y="1017.11">날씨</text><path d="M2909.92 933.929 3126.67 933.929 3126.67 959.48 3033.19 959.48 3033.19 1046.3 3002.92 1046.3 3002.92 959.48 2909.92 959.48ZM2668.09 832.331 2798.51 832.331 2798.51 857.882 2748.98 857.882 2748.98 881.859C2748.98 898.408 2754.83 914.715 2766.54 930.781 2778.25 946.846 2791.65 958.672 2806.74 966.261L2786.64 988.542C2764.12 972.316 2746.6 953.465 2734.09 931.991 2718.1 960.166 2700.67 980.51 2681.78 993.023L2659.49 973.648C2674.35 966.382 2687.93 953.809 2700.24 935.927 2712.55 918.045 2718.71 900.305 2718.71 882.706L2718.71 857.882 2668.09 857.882ZM3002.92 817.679 3033.19 817.679 3033.19 828.335C3033.19 842.382 3040.9 855.299 3056.32 867.085 3071.74 878.872 3092.2 886.218 3117.71 889.124L3102.09 911.89C3083.85 908.096 3066.93 901.799 3051.35 892.999 3035.77 884.2 3024.67 875.037 3018.05 865.511 3011.43 875.521 3000.29 884.967 2984.63 893.847 2968.97 902.727 2952.74 908.741 2935.95 911.89L2917.91 888.882C2943.42 885.814 2963.96 878.428 2979.54 866.722 2995.13 855.016 3002.92 842.221 3002.92 828.335ZM2827.33 812.714 2857.12 812.714 2857.12 1046.3 2827.33 1046.3Z" stroke="#FFFFFF" stroke-width="10" stroke-linejoin="round" stroke-miterlimit="10" fill-rule="evenodd"/><text fill="#000000" fill-opacity="0" font-family="Arial,Arial_MSFontService,sans-serif" font-size="233.59" x="2659.49" y="1017.11">지수</text><g clip-path="url(#clip13)" filter="url(#fx0)" transform="translate(2582 1632)"><g clip-path="url(#clip14)"><path d="M71.1113 8.08594 71.1113-78.5684 77.8496-78.5684 77.8496 8.08594ZM32.8379-13.791C26.2493-13.791 20.9261-16.4489 16.8682-21.7646 12.8102-27.0804 10.7812-34.2754 10.7812-43.3496 10.7812-52.5436 12.7878-59.7611 16.8008-65.0019 20.8138-70.2428 26.1595-72.8633 32.8379-72.8633 39.4863-72.8633 44.847-70.2428 48.9199-65.0019 52.9928-59.7611 55.0293-52.5436 55.0293-43.3496 55.0293-34.2155 52.9853-27.0055 48.8975-21.7197 44.8096-16.4339 39.4564-13.791 32.8379-13.791ZM32.8379-66.8887C28.2259-66.8887 24.4824-64.7399 21.6074-60.4424 18.7324-56.1449 17.2949-50.4473 17.2949-43.3496 17.2949-36.2819 18.7474-30.5843 21.6523-26.2568 24.5573-21.9294 28.2858-19.7656 32.8379-19.7656 37.36-19.7656 41.0811-21.9368 44.001-26.2793 46.9209-30.6217 48.3809-36.3118 48.3809-43.3496 48.3809-50.4772 46.9508-56.1823 44.0908-60.4648 41.2308-64.7474 37.4798-66.8887 32.8379-66.8887ZM170.145-48.875C162.928-49.8034 156.242-51.9746 150.088-55.3887 143.933-58.8027 139.823-62.1719 137.757-65.4961 136.139-62.4414 132.201-59.1921 125.942-55.748 119.683-52.304 112.915-50.043 105.637-48.9648L101.684-54.3555C110.878-55.1641 118.62-57.6722 124.909-61.8799 131.198-66.0876 134.342-70.3027 134.342-74.5254L134.342-76.8164 140.991-76.8164 140.991-74.5254C140.991-70.2129 144.165-65.9228 150.514-61.6553 156.863-57.3877 164.575-54.9245 173.649-54.2656ZM97.4616-35.5332 97.4616-41.5977 177.872-41.5977 177.872-35.5332ZM110.624 5.97461 110.624-13.7012 158.016-13.7012 158.016-21.4277 110.624-21.4277 110.624-27.3125 164.62-27.3125 164.62-7.90625 117.227-7.90625 117.227 0 166.911 0 166.911 5.97461ZM253.546 8.08594 253.546-78.5684 260.24-78.5684 260.24 8.08594ZM195.193-15.543 195.193-72.0547 201.931-72.0547 201.931-49.8633 229.962-49.8633 229.962-72.0547 236.701-72.0547 236.701-15.543ZM229.962-43.8887 201.931-43.8887 201.931-21.5176 229.962-21.5176Z" fill="#767171" transform="matrix(1 0 0 1 61.8572 125)"/></g></g><text fill="#767171" font-family="Malgun Gothic,Malgun Gothic_MSFontService,sans-serif" font-weight="400" font-size="92" transform="matrix(1 0 0 1 2641.73 1755)">이슬비</text><g clip-path="url(#clip15)" filter="url(#fx1)" transform="translate(2582 1961)"><g clip-path="url(#clip16)"><path d="M70.2129 8.08594 70.2129-78.5684 76.9062-78.5684 76.9062 8.08594ZM11.8594-15.543 11.8594-72.0547 18.5977-72.0547 18.5977-49.8633 46.6289-49.8633 46.6289-72.0547 53.3672-72.0547 53.3672-15.543ZM46.6289-43.8887 18.5977-43.8887 18.5977-21.5176 46.6289-21.5176Z" fill="#767171" transform="matrix(1 0 0 1 61.8572 125)"/></g></g><text fill="#767171" font-family="Malgun Gothic,Malgun Gothic_MSFontService,sans-serif" font-weight="400" font-size="92" transform="matrix(1 0 0 1 2641.73 2083)">비</text><g clip-path="url(#clip17)" filter="url(#fx2)" transform="translate(2674 1961)"><g clip-path="url(#clip18)"><path d="M37.1504-66.125 5.43555 10.9609-1.21289 10.9609 30.3672-66.125Z" fill="#767171" transform="matrix(1 0 0 1 61.5237 125)"/></g></g><text fill="#767171" font-family="Malgun Gothic,Malgun Gothic_MSFontService,sans-serif" font-weight="400" font-size="92" transform="matrix(1 0 0 1 2733.4 2083)">/ </text><g clip-path="url(#clip19)" filter="url(#fx3)" transform="translate(2742 1961)"><g clip-path="url(#clip20)"><path d="M20.2598-47.4824 20.2598-75.5137 26.9531-75.5137 26.9531-53.457 74.4355-53.457 74.4355-47.4824ZM42.8555-8.35547 42.8555-30.1875 5.79492-30.1875 5.79492-36.1621 86.2051-36.1621 86.2051-30.1875 49.5937-30.1875 49.5937-8.35547ZM19.4062 5.3457 19.4062-20.3496 26.1445-20.3496 26.1445-0.628906 74.3457-0.628906 74.3457 5.3457Z" fill="#767171" transform="matrix(1 0 0 1 61.7007 125)"/></g></g><text fill="#767171" font-family="Malgun Gothic,Malgun Gothic_MSFontService,sans-serif" font-weight="400" font-size="92" transform="matrix(1 0 0 1 2801.57 2083)">눈</text><g clip-path="url(#clip21)" filter="url(#fx4)" transform="translate(2865 1961)"><g clip-path="url(#clip22)"><path d="M37.1504-66.125 5.43555 10.9609-1.21289 10.9609 30.3672-66.125Z" fill="#767171" transform="matrix(1 0 0 1 62.4507 125)"/></g></g><text fill="#767171" font-family="Malgun Gothic,Malgun Gothic_MSFontService,sans-serif" font-weight="400" font-size="92" transform="matrix(1 0 0 1 2925.32 2083)">/ </text><g clip-path="url(#clip23)" filter="url(#fx5)" transform="translate(2934 1961)"><g clip-path="url(#clip24)"><path d="M73.7617-44.6973 73.7617-15.3633 67.0684-15.3633 67.0684-78.5684 73.7617-78.5684 73.7617-50.8066 86.834-50.8066 86.834-44.6973ZM31.4453-31.4453C25.0365-31.4453 19.6833-33.4743 15.3857-37.5322 11.0882-41.5902 8.93945-46.8385 8.93945-53.2773 8.93945-59.7461 11.0732-64.9795 15.3408-68.9775 19.6084-72.9756 24.9766-74.9746 31.4453-74.9746 37.944-74.9746 43.3122-72.9681 47.5498-68.9551 51.7874-64.942 53.9062-59.7161 53.9062-53.2773 53.9062-46.8685 51.7725-41.6276 47.5049-37.5547 43.2373-33.4818 37.8841-31.4453 31.4453-31.4453ZM31.4453-69.2695C26.7135-69.2695 22.8652-67.817 19.9004-64.9121 16.9355-62.0072 15.4531-58.1289 15.4531-53.2773 15.4531-48.4258 16.9281-44.54 19.8779-41.6201 22.8278-38.7002 26.6836-37.2402 31.4453-37.2402 36.207-37.2402 40.0703-38.7002 43.0352-41.6201 46-44.54 47.4824-48.4258 47.4824-53.2773 47.4824-58.1289 46-62.0072 43.0352-64.9121 40.0703-67.817 36.207-69.2695 31.4453-69.2695ZM19.8555 5.16602 19.8555-23.2695 26.6836-23.2695 26.6836-0.808594 76.457-0.808594 76.457 5.16602ZM164.081 8.08594 164.081-34.9492 153.299-34.9492 153.299 5.43555 146.696 5.43555 146.696-76.8164 153.299-76.8164 153.299-40.9238 164.081-40.9238 164.081-78.5684 170.774-78.5684 170.774 8.08594ZM135.915-71.0215C134.986-46.6139 124.13-27.1478 103.346-12.623L98.0006-17.2051C105.877-21.3978 112.825-28.0013 118.844-37.0156 124.864-46.0299 128.188-55.4036 128.817-65.1367L103.167-65.1367 103.167-71.0215Z" fill="#767171" transform="matrix(1 0 0 1 61.6279 125)"/></g></g><text fill="#767171" font-family="Malgun Gothic,Malgun Gothic_MSFontService,sans-serif" font-weight="400" font-size="92" transform="matrix(1 0 0 1 2993.5 2083)">안개</text><g clip-path="url(#clip25)" filter="url(#fx6)" transform="translate(3149 1961)"><g clip-path="url(#clip26)"><path d="M37.1504-66.125 5.43555 10.9609-1.21289 10.9609 30.3672-66.125Z" fill="#767171" transform="matrix(1 0 0 1 62.0444 125)"/></g></g><text fill="#767171" font-family="Malgun Gothic,Malgun Gothic_MSFontService,sans-serif" font-weight="400" font-size="92" transform="matrix(1 0 0 1 3208.92 2083)">/ </text><g clip-path="url(#clip27)" filter="url(#fx7)" transform="translate(3217 1961)"><g clip-path="url(#clip28)"><path d="M70.2129-15.1836 70.2129-47.123 50.8965-47.123 50.8965-53.0977 70.2129-53.0977 70.2129-78.5684 76.9062-78.5684 76.9062-15.1836ZM53.9961-27.043C49.6836-29.0495 45.5433-31.8721 41.5752-35.5107 37.6071-39.1494 34.7546-42.6458 33.0176-46 31.2207-42.1367 28.2933-38.206 24.2353-34.208 20.1774-30.21 16.082-27.1777 11.9492-25.1113L7.00781-30.2773C12.8776-32.3138 18.096-36.0049 22.6631-41.3506 27.2301-46.6963 29.5137-51.6751 29.5137-56.2871L29.5137-62.4863 9.74805-62.4863 9.74805-68.4609 29.6035-68.4609 29.6035-78.4785 36.3418-78.4785 36.3418-68.4609 56.0176-68.4609 56.0176-62.4863 36.3418-62.4863 36.3418-56.3769C36.3418-51.9147 38.6328-47.2503 43.2148-42.3838 47.7969-37.5172 52.903-34.2454 58.5332-32.5684ZM23.5391 5.25586 23.5391-22.7305 30.3672-22.7305 30.3672-0.628906 79.1973-0.628906 79.1973 5.25586ZM110.983-47.8418 110.983-76.5469 164.44-76.5469 164.44-70.5723 117.721-70.5723 117.721-53.8164 165.339-53.8164 165.339-47.8418ZM134.253-24.2129 134.253-32.5684 97.4616-32.5684 97.4616-38.6328 177.872-38.6328 177.872-32.5684 141.081-32.5684 141.081-24.2129C149.107-23.8835 155.254-22.3187 159.521-19.5186 163.789-16.7184 165.923-13.0273 165.923-8.44531 165.923-3.53385 163.482 0.329427 158.6 3.14453 153.719 5.95963 146.741 7.36719 137.667 7.36719 128.592 7.36719 121.615 5.95963 116.733 3.14453 111.852 0.329427 109.411-3.53385 109.411-8.44531 109.411-13.0273 111.545-16.7184 115.812-19.5186 120.08-22.3187 126.227-23.8835 134.253-24.2129ZM137.667-18.5977C130.629-18.5977 125.343-17.6842 121.809-15.8574 118.275-14.0306 116.508-11.5599 116.508-8.44531 116.508-5.33073 118.283-2.86751 121.832-1.05566 125.381 0.756185 130.659 1.66211 137.667 1.66211 144.674 1.66211 149.953 0.756185 153.502-1.05566 157.05-2.86751 158.825-5.33073 158.825-8.44531 158.825-11.5599 157.058-14.0306 153.524-15.8574 149.99-17.6842 144.704-18.5977 137.667-18.5977Z" fill="#767171" transform="matrix(1 0 0 1 62.2217 125)"/></g></g><text fill="#767171" font-family="Malgun Gothic,Malgun Gothic_MSFontService,sans-serif" font-weight="400" font-size="92" transform="matrix(1 0 0 1 3277.09 2083)">천둥</text><g clip-path="url(#clip29)" filter="url(#fx8)" transform="translate(3433 1961)"><g clip-path="url(#clip30)"><path d="M14.9141-30.5469 14.9141-74.5254 21.5176-74.5254 21.5176-57.9492 48.2012-57.9492 48.2012-74.5254 54.9394-74.5254 54.9394-54.2656 71.1113-54.2656 71.1113-78.5684 77.8496-78.5684 77.8496-15.2734 71.1113-15.2734 71.1113-48.291 54.9394-48.291 54.9394-30.5469ZM48.2012-51.9746 21.5176-51.9746 21.5176-36.4316 48.2012-36.4316ZM25.3809 4.76172 25.3809-21.0684 32.1191-21.0684 32.1191-1.30273 81.0391-1.30273 81.0391 4.76172ZM164.081 8.08594 164.081-34.9492 153.299-34.9492 153.299 5.43555 146.696 5.43555 146.696-76.8164 153.299-76.8164 153.299-40.9238 164.081-40.9238 164.081-78.5684 170.774-78.5684 170.774 8.08594ZM135.915-71.0215C134.986-46.6139 124.13-27.1478 103.346-12.623L98.0006-17.2051C105.877-21.3978 112.825-28.0013 118.844-37.0156 124.864-46.0299 128.188-55.4036 128.817-65.1367L103.167-65.1367 103.167-71.0215Z" fill="#767171" transform="matrix(1 0 0 1 61.6382 125)"/></g></g><text fill="#767171" font-family="Malgun Gothic,Malgun Gothic_MSFontService,sans-serif" font-weight="400" font-size="92" transform="matrix(1 0 0 1 3492.51 2083)">번개</text><g clip-path="url(#clip31)" filter="url(#fx9)" transform="translate(2582 1292)"><g clip-path="url(#clip32)"><path d="M73.6719-51.4355 73.6719-34.3203 66.9785-34.3203 66.9785-78.5684 73.6719-78.5684 73.6719-57.5 86.7441-57.5 86.7441-51.4355ZM10.8711-38.1836 10.8711-75.334 50.2227-75.334 50.2227-38.1836ZM43.6191-69.3594 17.4746-69.3594 17.4746-44.0684 43.6191-44.0684ZM67.0684 8.08594 67.0684-23.5391 48.3809-23.5391 48.3809-29.5137 73.6719-29.5137 73.6719 8.08594ZM47.3926 6.06445C42.3613 6.57357 31.5052 6.82812 14.8242 6.82812L14.8242-14.7344 37.4648-14.7344 37.4648-23.6289 14.8242-23.6289 14.8242-29.5137 44.0684-29.5137 44.0684-9.11914 21.4277-9.11914 21.4277 1.0332 24.123 1.0332C35.8926 1.0332 43.4844 0.808594 46.8984 0.359375ZM137.667-44.6074C128.952-44.6074 122.236-46.1572 117.519-49.2568 112.802-52.3564 110.444-56.3919 110.444-61.3633 110.444-66.3346 112.802-70.3701 117.519-73.4697 122.236-76.5693 128.952-78.1191 137.667-78.1191 146.382-78.1191 153.097-76.5693 157.814-73.4697 162.531-70.3701 164.889-66.3346 164.889-61.3633 164.889-56.3919 162.531-52.3564 157.814-49.2568 153.097-46.1572 146.382-44.6074 137.667-44.6074ZM137.667-72.4141C131.198-72.4141 126.219-71.4258 122.73-69.4492 119.241-67.4726 117.497-64.7773 117.497-61.3633 117.497-57.9492 119.241-55.2539 122.73-53.2773 126.219-51.3008 131.198-50.3125 137.667-50.3125 144.135-50.3125 149.114-51.3008 152.603-53.2773 156.092-55.2539 157.837-57.9492 157.837-61.3633 157.837-64.7773 156.092-67.4726 152.603-69.4492 149.114-71.4258 144.135-72.4141 137.667-72.4141ZM97.4616-31.2656 97.4616-37.2402 177.872-37.2402 177.872-31.2656ZM110.714 5.52539 110.714-23.3594 164.62-23.3594 164.62 5.52539ZM157.926-17.3848 117.407-17.3848 117.407-0.449219 157.926-0.449219Z" fill="#767171" transform="matrix(1 0 0 1 61.8572 124)"/></g></g><text fill="#767171" font-family="Malgun Gothic,Malgun Gothic_MSFontService,sans-serif" font-weight="400" font-size="92" transform="matrix(1 0 0 1 2641.73 1414)">맑음</text><g clip-path="url(#clip33)" filter="url(#fx10)" transform="translate(2797 1292)"><g clip-path="url(#clip34)"><path d="M37.1504-66.125 5.43555 10.9609-1.21289 10.9609 30.3672-66.125Z" fill="#767171" transform="matrix(1 0 0 1 62.2737 124)"/></g></g><text fill="#767171" font-family="Malgun Gothic,Malgun Gothic_MSFontService,sans-serif" font-weight="400" font-size="92" transform="matrix(1 0 0 1 2857.15 1414)">/ </text><g clip-path="url(#clip35)" filter="url(#fx11)" transform="translate(2865 1292)"><g clip-path="url(#clip36)"><path d="M41.8672 8.08594 41.8672-32.0293 5.79492-32.0293 5.79492-38.0937 66.0351-38.0937C66.7239-45.1914 67.0683-55.4336 67.0684-68.8203L18.8672-68.8203 18.8672-74.7949 73.7617-74.7949C73.7617-59.9707 73.3424-47.737 72.5039-38.0937L86.2051-38.0937 86.2051-32.0293 48.5605-32.0293 48.5605 8.08594ZM110.983-41.8672 110.983-62.1719 157.702-62.1719 157.702-70.9316 110.983-70.9316 110.983-76.6367 164.35-76.6367 164.35-56.7812 117.632-56.7812 117.632-47.5723 166.372-47.5723 166.372-41.8672ZM97.4616-27.9863 97.4616-33.6914 177.872-33.6914 177.872-27.9863ZM110.714 6.91797 110.714-19.6758 164.62-19.6758 164.62 6.91797ZM158.016-13.9707 117.317-13.9707 117.317 1.21289 158.016 1.21289Z" fill="#767171" transform="matrix(1 0 0 1 62.4507 124)"/></g></g><text fill="#767171" font-family="Malgun Gothic,Malgun Gothic_MSFontService,sans-serif" font-weight="400" font-size="92" transform="matrix(1 0 0 1 2925.32 1414)">구름</text><rect x="1391" y="1347" width="579" height="66" fill="#00CC00"/><rect x="1391" y="1685" width="579" height="65" fill="#FFFF00"/><rect x="1391" y="2016" width="579" height="64.9999" fill="#FF0000"/><text font-family="Malgun Gothic,Malgun Gothic_MSFontService,sans-serif" font-weight="400" font-size="128" transform="matrix(1 0 0 1 2228.62 1418)">좋음<tspan font-size="128" x="0" y="690">나쁨</tspan><tspan font-size="128" x="0" y="351">보통</tspan></text></g></svg>