<svg width="15" height="19" xmlns="http://www.w3.org/2000/svg" xmlns:xlink="http://www.w3.org/1999/xlink" overflow="hidden"><defs><clipPath id="clip0"><rect x="416" y="201" width="15" height="19"/></clipPath></defs><g clip-path="url(#clip0)" transform="translate(-416 -201)"><path d="M66.2285 24.0837C69.1168 26.9722 69.1168 31.6551 66.2285 34.5436 64.4851 36.2868 62.7419 38.0304 60.9985 39.7736 59.2551 38.0304 57.5118 36.2868 55.7686 34.5436 52.8801 31.6551 52.8801 26.9722 55.7686 24.0837 58.6569 21.1952 63.34 21.1952 66.2285 24.0837Z" stroke="#000000" stroke-width="0.198316" stroke-miterlimit="8" fill="#686FF4" fill-rule="evenodd" transform="matrix(1 0 0 1.04883 362.5 178.127)"/><path d="M54.4424 29.3078C54.4424 25.7074 57.3612 22.7886 60.9616 22.7886 64.562 22.7886 67.4808 25.7074 67.4808 29.3078 67.4808 32.9081 64.562 35.8269 60.9616 35.8269 57.3612 35.8269 54.4424 32.9081 54.4424 29.3078Z" stroke="#000000" stroke-width="0.264423" stroke-miterlimit="8" fill="#FFFFFF" fill-rule="evenodd" transform="matrix(1 0 0 1.04883 362.5 178.127)"/><path d="M56.0097 27.8276 59.6663 27.5384 61.0576 23.9712 62.449 27.5384 66.1058 27.8276 63.309 30.3213 64.1775 34.0673 61.0576 32.0411 57.9379 34.0673 58.8063 30.3213Z" stroke="#000000" stroke-width="0.396635" stroke-miterlimit="8" fill="#686FF4" fill-rule="evenodd" transform="matrix(1 0 0 1.04883 362.5 178.127)"/><path d="M20.658 35.151C20.658 31.4199 23.5802 28.3952 27.1851 28.3952 30.7899 28.3952 33.7121 31.4199 33.7121 35.151 33.7121 38.882 30.7899 41.9067 27.1851 41.9067 23.5802 41.9067 20.658 38.882 20.658 35.151Z" stroke="#000000" stroke-width="0.262036" stroke-miterlimit="8" fill="#FFFF00" fill-rule="evenodd" transform="matrix(1.00013 0 0 1 396.254 173.691)"/><path d="M21.8776 33.3762 25.5787 32.8849 27.166 29.329 28.7533 32.8849 32.4544 33.3762 29.7341 36.0651 30.4343 39.9248 27.166 38.0307 23.8977 39.9248 24.5979 36.0651Z" stroke="#000000" stroke-width="0.262036" stroke-miterlimit="8" fill="#686FF4" fill-rule="evenodd" transform="matrix(1.00013 0 0 1 396.254 173.691)"/></g></svg>